# xmcd
#
# Track frame offsets: 
#        150
#        15082
#        27895
#        41687
#        56337
#        70960
#        85710
#        101850
#        116985
#        131880
#        144650
#        160582
#        175597
#        189692
#        204677
#        218422
#        232507
#        246325
#        260312
#        274755
#        287762
#        300342
#
# Disc length: 4184 seconds
#
# Revision: 2
# Processed by: cddbd v1.5.2PL0 Copyright (c) Steve Scherf et al.
# Submitted via: ExactAudioCopy v0.99pb4
#
DISCID=2d105616
DTITLE=Bo Carter - Complete Recorded Works - Vol. 5
DYEAR=1938
DGENRE=Blues
TTITLE0=Let's Get Drunk Again
TTITLE1=Some Day
TTITLE2=Old Devil
TTITLE3=Country Fool
TTITLE4=Santa Claus
TTITLE5=Be My Salty Dog
TTITLE6=Five Dollar Bill
TTITLE7=Ways Like A Crawfish
TTITLE8=Brown-Skin Woman
TTITLE9=Lucille, Lucille
TTITLE10=The Country Farm Blues
TTITLE11=Border Of New Mexico Blues
TTITLE12=Arrangement For Me-Blues
TTITLE13=Lock The Lock
TTITLE14=Trouble, Oh Trouble
TTITLE15=Baby Ruth
TTITLE16=My Baby
TTITLE17=Policy Blues
TTITLE18=Tush Hog Blues
TTITLE19=My Little Mind
TTITLE20=Honey
TTITLE21=What You Want Your Daddy To Do
EXTD=
EXTT0=
EXTT1=
EXTT2=
EXTT3=
EXTT4=
EXTT5=
EXTT6=
EXTT7=
EXTT8=
EXTT9=
EXTT10=
EXTT11=
EXTT12=
EXTT13=
EXTT14=
EXTT15=
EXTT16=
EXTT17=
EXTT18=
EXTT19=
EXTT20=
EXTT21=
PLAYORDER=
